<?xml version="1.0" standalone="no"?>
<!DOCTYPE svg PUBLIC "-//W3C//DTD SVG 20010904//EN"
 "http://www.w3.org/TR/2001/REC-SVG-20010904/DTD/svg10.dtd">
<svg version="1.0" xmlns="http://www.w3.org/2000/svg"
 width="389.000000pt" height="387.000000pt" viewBox="0 0 389.000000 387.000000"
 preserveAspectRatio="xMidYMid meet">
<metadata>
Created by potrace 1.16, written by Peter Selinger 2001-2019
</metadata>
<g transform="translate(0.000000,387.000000) scale(0.100000,-0.100000)"
fill="#000000" stroke="none">
<path d="M735 3754 c-286 -62 -522 -273 -621 -555 l-29 -84 -3 -885 c-2 -785
-1 -893 13 -958 38 -168 116 -304 250 -430 68 -64 105 -90 196 -136 l112 -56
27 -64 c73 -172 225 -332 394 -415 186 -92 112 -86 1111 -86 953 0 916 -2
1058 56 114 46 178 90 282 194 113 113 164 197 212 350 l28 90 0 870 c0 943 1
919 -56 1063 -81 205 -239 367 -450 462 -72 32 -77 36 -93 81 -20 55 -94 178
-137 226 -104 119 -257 218 -409 265 l-75 23 -870 2 c-743 1 -880 -1 -940 -13z
m1819 -194 c141 -36 267 -121 355 -238 28 -37 51 -73 51 -79 0 -10 -170 -13
-817 -13 -780 0 -822 -1 -900 -20 -241 -58 -443 -227 -552 -462 -74 -158 -71
-118 -71 -1041 0 -455 -3 -827 -8 -827 -16 0 -110 70 -159 120 -108 108 -166
228 -183 381 -8 63 -10 354 -8 884 l3 790 27 80 c71 211 240 370 452 425 67
18 123 19 902 19 796 1 834 0 908 -19z m-51 -944 c331 -99 581 -348 684 -683
25 -81 27 -102 27 -268 1 -158 -2 -191 -22 -265 -25 -92 -97 -249 -134 -291
l-23 -27 -52 24 -53 23 26 38 c162 237 194 555 83 826 -47 113 -98 187 -198
287 -181 179 -368 254 -631 253 -106 0 -139 -4 -215 -27 -110 -33 -177 -63
-251 -112 -169 -112 -297 -284 -359 -484 -36 -116 -45 -299 -21 -420 57 -282
260 -535 513 -638 141 -58 186 -67 356 -67 l157 0 0 -56 0 -56 -46 -7 c-77
-10 -183 -7 -281 9 -390 63 -697 347 -805 743 -31 114 -31 352 0 475 72 287
262 527 521 656 161 81 263 102 476 97 137 -3 173 -7 248 -30z m-51 -258 c132
-43 275 -137 352 -231 60 -73 122 -192 147 -280 30 -106 33 -297 6 -397 -127
-463 -637 -693 -1067 -482 -80 39 -110 61 -186 137 -99 97 -146 172 -191 296
-35 100 -44 304 -18 412 19 79 79 214 118 265 l25 33 22 -66 22 -67 -31 -68
c-86 -186 -77 -417 22 -582 81 -133 189 -227 322 -280 70 -27 96 -32 199 -36
143 -6 201 5 316 60 164 79 299 250 336 428 21 98 14 250 -15 341 -55 173
-216 335 -397 401 -82 29 -273 37 -362 14 l-63 -16 -67 34 -67 34 48 21 c115
50 177 60 332 56 95 -2 136 -8 197 -27z m-156 -219 c257 -46 437 -302 394
-559 -12 -69 -66 -196 -93 -219 -10 -8 -25 -3 -61 19 l-47 30 20 33 c80 131
91 247 32 372 -71 153 -233 237 -397 206 -37 -6 -84 -21 -105 -31 -57 -29
-138 -116 -168 -179 -22 -48 -26 -70 -26 -151 0 -84 3 -103 29 -157 33 -73
107 -148 181 -183 39 -19 71 -25 142 -28 100 -5 94 -1 108 -71 9 -44 -3 -51
-90 -51 -140 0 -252 46 -352 146 -121 122 -170 297 -128 457 47 182 191 324
368 362 78 17 118 18 193 4z"/>
</g>
</svg>
