<?xml version="1.0" standalone="no"?>
<!DOCTYPE svg PUBLIC "-//W3C//DTD SVG 20010904//EN"
 "http://www.w3.org/TR/2001/REC-SVG-20010904/DTD/svg10.dtd">
<svg version="1.0" xmlns="http://www.w3.org/2000/svg"
 width="600.000000pt" height="147.000000pt" viewBox="0 0 600.000000 147.000000"
 preserveAspectRatio="xMidYMid meet">
<metadata>
Created by potrace 1.16, written by Peter Selinger 2001-2019
</metadata>
<g transform="translate(0.000000,147.000000) scale(0.100000,-0.100000)"
fill="#000000" stroke="none">
<path d="M1890 1237 c-53 -27 -63 -110 -17 -142 33 -23 90 -19 115 8 62 66
-18 175 -98 134z"/>
<path d="M4638 1227 l-58 -10 0 -439 0 -438 70 0 c67 0 70 1 70 24 l0 23 53
-26 c71 -35 198 -37 268 -2 103 49 168 133 188 243 26 145 -43 287 -174 356
-43 23 -62 27 -140 27 -79 0 -97 -3 -143 -27 l-52 -27 0 154 c0 118 -3 155
-12 154 -7 -1 -39 -6 -70 -12z m352 -387 c22 -11 52 -39 67 -62 24 -36 28 -51
28 -118 0 -87 -20 -127 -83 -171 -30 -21 -47 -24 -117 -24 -72 0 -86 3 -123
28 l-42 27 0 139 c0 119 2 140 18 153 67 59 169 70 252 28z"/>
<path d="M150 780 l0 -440 330 0 330 0 0 65 0 65 -255 0 -255 0 0 125 0 125
165 0 166 0 -3 63 -3 62 -162 3 -163 2 0 115 0 115 250 0 250 0 0 70 0 70
-325 0 -325 0 0 -440z"/>
<path d="M3140 780 l0 -440 320 0 321 0 -3 68 -3 67 -242 3 -243 2 -2 368 -3
367 -72 3 -73 3 0 -441z"/>
<path d="M2430 993 c-37 -6 -81 -24 -112 -45 l-28 -19 0 25 c0 26 -1 26 -75
26 l-75 0 0 -320 0 -320 75 0 75 0 0 235 0 235 41 27 c83 54 191 37 231 -38
16 -30 18 -59 18 -246 l0 -213 76 0 76 0 -4 238 -3 237 -29 52 c-34 61 -86
101 -158 120 -53 13 -62 14 -108 6z"/>
<path d="M4094 990 c-61 -9 -181 -48 -189 -60 -3 -5 6 -31 19 -59 l25 -49 68
25 c55 20 82 24 142 21 68 -3 75 -6 102 -36 24 -27 29 -41 29 -86 l0 -53 -57
13 c-201 47 -363 -30 -363 -172 0 -89 28 -136 105 -177 33 -18 57 -22 130 -22
79 0 96 3 138 27 l47 27 0 -25 c0 -23 2 -24 76 -24 l76 0 -4 243 c-3 228 -4
245 -26 288 -22 46 -71 88 -122 107 -39 15 -140 21 -196 12z m174 -389 c19
-10 22 -20 22 -67 l0 -55 -42 -19 c-52 -24 -156 -27 -197 -5 -63 32 -62 117 2
150 37 19 177 17 215 -4z"/>
<path d="M5444 974 c-123 -44 -173 -198 -93 -288 38 -44 87 -63 212 -81 110
-17 143 -32 153 -69 23 -94 -150 -129 -286 -57 l-64 33 -32 -39 c-18 -21 -33
-43 -34 -50 0 -18 77 -60 145 -77 214 -56 405 33 405 190 0 111 -57 155 -238
186 -150 25 -183 45 -168 103 16 62 149 73 258 23 l58 -27 35 46 35 46 -27 19
c-80 53 -266 75 -359 42z"/>
<path d="M866 958 c4 -13 44 -156 89 -318 l82 -295 70 -3 70 -3 26 83 c14 46
42 139 63 208 21 69 41 129 45 134 4 4 19 -32 34 -80 14 -49 44 -146 66 -216
l40 -128 69 0 69 0 10 38 c6 20 46 164 89 320 l79 282 -69 0 c-37 0 -68 -1
-68 -2 0 -12 -110 -421 -114 -425 -4 -4 -29 70 -111 340 l-27 87 -63 0 -62 0
-63 -207 c-35 -115 -67 -212 -70 -216 -6 -7 -45 130 -111 386 l-10 37 -70 0
c-68 0 -70 -1 -63 -22z"/>
<path d="M1860 660 l0 -320 70 0 70 0 0 320 0 320 -70 0 -70 0 0 -320z"/>
</g>
</svg>
